HIERARCHY
ROOT pelvis
{
  OFFSET 0 100 0
  CHANNELS 6 Xposition Yposition Zposition Zrotation Xrotation Yrotation
  JOINT pelvis_right_femur
  {
    OFFSET -10.78128 -3.44521 -0.5502486
    CHANNELS 3 Zrotation Xrotation Yrotation
    JOINT right_femur_tibia
    {
      OFFSET -0.8047443 -44.0398 -0.1307829
      CHANNELS 3 Zrotation Xrotation Yrotation
      JOINT right_tibia_foot
      {
        OFFSET 3.006224 -47.83518 -5
        CHANNELS 3 Zrotation Xrotation Yrotation
        End Site
        {
          OFFSET 0 -5 15
        }
      }
    }
  }
  JOINT pelvis_left_femur
  {
    OFFSET 10.78128 -3.44521 -0.5502486
    CHANNELS 3 Zrotation Xrotation Yrotation
    JOINT left_femur_tibia
    {
      OFFSET 0.8047443 -44.0398 -0.1307829
      CHANNELS 3 Zrotation Xrotation Yrotation
      JOINT left_tibia_foot
      {
        OFFSET -4.370144 -48.10324 -4.275266
        CHANNELS 3 Zrotation Xrotation Yrotation
        End Site
        {
          OFFSET 0 -5 15
        }
      }
    }
  }
  JOINT pelvis_spine1
  {
    OFFSET 0 6.468898 -3.129235
    CHANNELS 3 Zrotation Xrotation Yrotation
    JOINT spine1
    {
      OFFSET 0 23.15396 4.99043
      CHANNELS 3 Zrotation Xrotation Yrotation
      JOINT spine2
      {
        OFFSET 0 20.79997 -5.064912
        CHANNELS 3 Zrotation Xrotation Yrotation
        JOINT neck
        {
          OFFSET 0 14.38658 9.616178
          CHANNELS 3 Zrotation Xrotation Yrotation
          End Site
          {
            OFFSET 0 20 0
          }
        }
      }
      JOINT right_manubrium
      {
        OFFSET -5.722621 16.35077 3.967754
        CHANNELS 3 Zrotation Xrotation Yrotation
        JOINT right_clavicle
        {
          OFFSET -13.16364 1.694482 -4.693211
          CHANNELS 3 Zrotation Xrotation Yrotation
          JOINT right_humerus
          {
            OFFSET -28.5034 -0.3100689 -2.792744
            CHANNELS 3 Zrotation Xrotation Yrotation
            JOINT right_radius
            {
              OFFSET -25.15693 0.02248979 -1.271978
              CHANNELS 3 Zrotation Xrotation Yrotation
              End Site
              {
                OFFSET -15 0 0
              }
            }
          }
        }
      }
      JOINT left_manubrium
      {
        OFFSET 5.722621 16.35077 3.967754
        CHANNELS 3 Zrotation Xrotation Yrotation
        JOINT left_clavicle
        {
          OFFSET 13.16364 1.694482 -4.693211
          CHANNELS 3 Zrotation Xrotation Yrotation
          JOINT left_humerus
          {
            OFFSET 29.39168 -1.063119 -2.237045
            CHANNELS 3 Zrotation Xrotation Yrotation
            JOINT left_radius
            {
              OFFSET 24.59957 -0.9528479 0.9047498
              CHANNELS 3 Zrotation Xrotation Yrotation
              End Site
              {
                OFFSET 15 -0 -0
              }
            }
          }
        }
      }
    }
  }
}
MOTION
Frames: 11
Frame Time: 0.0416666666667
-1539.883 126.495 107.0001 -1.617253 1.749848 162.2502 3.903762 -28.70618 -6.364996 -0 6.023936 -0 -11.81761 8.091985 3.579343 -5.623138 3.424806 -4.964511 -0 30.10693 -0 10.55225 -10.28984 11.93185 -2.641706 -0.7514162 6.39551 0.8966881 14.20707 -7.769456 -1.510413 18.54075 7.785445 9.928468 -17.61711 0.3849093 5.269493 -19.73187 13.75506 87.68223 33.94091 -22.45298 -0 0 17.81508 -18.90993 4.977157 3.497565 8.773585 -30.89472 -11.31703 -86.7303 3.709142 14.76547 0 0 -25.24321 18.64669 3.151034 -12.59337
-1538.509 126.3275 101.6657 -1.076564 2.242349 162.0877 4.51735 -26.21898 -5.850512 -0 5.957434 -0 -11.90765 7.223279 3.266947 -4.951858 2.544024 -4.540869 -0 33.75945 -0 8.478558 -10.17013 11.65034 -2.261763 -0.5921478 6.266204 1.017556 14.15811 -7.924588 -1.495027 18.71122 7.566061 9.522727 -18.02791 0.5669337 4.907585 -19.65737 13.7065 87.78465 32.90254 -22.21878 -0 0 17.64725 -18.86114 5.270548 3.243914 8.742311 -30.54403 -10.7919 -87.31155 3.941942 15.04669 0 0 -22.78885 18.60329 4.026384 -13.39584
-1537.056 126.3346 96.33489 -0.5120443 3.536647 161.77 4.983523 -22.70894 -5.895187 -0 6.088949 -0 -12.31618 6.914469 2.943437 -4.271613 1.13972 -3.727462 -0 37.91763 -0 6.907084 -9.345306 11.34368 -1.826264 -0.478234 6.359757 0.8339295 14.41641 -7.914642 -1.505585 19.10351 7.207194 9.251328 -17.83096 0.3458792 4.135637 -20.08069 13.73281 88.35086 31.13756 -21.9364 -0 0 17.91738 -19.45889 5.504647 2.94091 8.409279 -30.59738 -11.11867 -87.88554 3.976162 15.85798 0 0 -20.68793 18.3838 5.254962 -13.73
-1535.521 126.5455 91.08396 0.2051236 5.570782 161.2167 5.490311 -18.19725 -6.162611 -0 6.49227 -0 -12.89234 7.008738 2.431781 -3.510629 -0.576526 -2.676429 -0 42.41053 -0 5.651907 -8.076015 11.21627 -1.283213 -0.4504518 6.620023 0.4243006 14.97726 -7.807186 -1.450447 19.67944 6.617017 8.90418 -17.26095 -0.07519649 2.839163 -21.05424 13.78508 89.48265 28.38102 -21.58717 -0 0 18.581 -20.55662 5.866256 2.672535 7.78204 -30.89528 -12.06165 -88.52563 3.959696 17.27919 0 0 -18.75572 17.94801 7.069857 -13.54638
-1533.92 126.962 85.99777 1.16169 7.957889 160.3592 6.148046 -12.82838 -6.114001 -0 7.084476 -0 -13.4922 6.767527 1.563656 -2.522754 -2.752287 -1.682059 -0 46.62765 -0 4.665558 -6.567885 11.48536 -0.6742268 -0.4752177 6.993085 -0.02845033 15.71757 -7.631812 -1.227174 20.30684 5.768578 8.263756 -16.6849 -0.3795881 1.146256 -22.51373 13.82763 91.01844 24.91424 -20.98107 -0 0 19.51196 -21.66939 6.458679 2.657926 6.832546 -31.0682 -13.16679 -89.34309 4.148062 19.43987 0 0 -16.60578 17.22978 9.340177 -12.68847
-1532.289 127.5108 81.12151 2.307454 10.18306 159.1945 6.875113 -6.970725 -5.437607 -0 7.695375 -0 -13.91786 5.609103 0.3411042 -1.279935 -5.460282 -0.9843987 -0 49.3151 -0 4.102753 -4.971651 12.18666 -0.1125944 -0.5334419 7.423544 -0.3530917 16.47169 -7.392846 -0.8001668 20.82273 4.701928 7.183665 -16.38977 -0.3293826 -0.7132676 -24.36482 13.82461 92.66269 21.29356 -19.91788 -0 0 20.63686 -22.36515 7.30942 3.183634 5.5745 -30.76637 -14.0091 -90.32123 4.687626 22.3697 0 0 -14.27765 16.1091 11.64641 -10.95866
-1530.67 128.0603 76.39665 3.435077 11.63118 157.8377 7.440172 -1.226397 -4.141731 -0 8.206722 -0 -13.9571 3.235082 -0.9841557 0.1038286 -8.507544 -0.7185614 -0 48.85817 -0 3.996685 -3.526881 13.1413 0.2825372 -0.6491144 7.803803 -0.4275813 16.97957 -7.115247 -0.2479488 21.07893 3.593304 5.69666 -16.53853 0.1783394 -2.352773 -26.33433 13.72101 93.88897 18.3636 -18.31358 -0 0 21.88528 -22.4413 8.402551 4.43493 4.207984 -29.75983 -14.13415 -91.32079 5.591555 25.74635 0 0 -12.06714 14.5638 13.44395 -8.435086
-1529.083 128.4766 71.65821 4.228136 11.77846 156.5183 7.586125 3.898842 -2.517717 -0 8.665374 -0 -13.50305 -0.4685538 -1.960926 1.446212 -11.6596 -0.900111 -0 44.29075 -0 4.031843 -2.521177 14.12618 0.4366977 -0.8299569 8.006281 -0.2297913 16.8875 -6.825123 0.2385152 21.04687 2.781368 4.118941 -17.11455 1.076378 -3.219552 -27.88743 13.4747 93.90601 17.20402 -16.2305 -0 0 23.10395 -21.94379 9.59776 6.264454 3.127363 -28.0134 -13.12891 -92.18754 6.816484 28.85278 0 0 -10.03352 12.85562 14.286 -5.720047
-1527.518 128.6479 66.72105 4.491017 10.64268 155.4454 7.176082 8.373455 -1.076512 -0 9.23978 -0 -12.64058 -5.216982 -2.221066 2.566088 -14.75931 -1.459635 -0 36.14907 -0 3.657327 -2.139412 15.12118 0.3749443 -1.025615 7.963913 0.09941188 15.96441 -6.476432 0.5003986 20.91588 2.582125 2.913895 -17.84915 2.182862 -2.990737 -28.51789 13.06104 92.1735 18.3759 -13.74643 -0 0 24.06406 -21.24313 10.66693 8.242788 2.682474 -25.72776 -10.98609 -92.88906 8.2885 30.97423 0 0 -7.845304 11.39395 14.2649 -3.589558
-1525.953 128.4905 61.46566 4.357737 8.881983 154.6555 6.286005 12.50822 -0.2497066 -0 10.15807 -0 -11.60785 -10.12416 -1.801531 3.296381 -17.49984 -2.370895 -0 26.13283 -0 2.516276 -2.318706 16.27949 0.2445784 -1.204831 7.698783 0.3383749 14.36373 -5.972716 0.5687289 20.95941 3.015316 2.313683 -18.36346 3.347604 -2.006109 -28.19709 12.4359 89.07415 21.10818 -10.88909 -0 0 24.61577 -20.92035 11.46556 10.07603 2.891446 -23.22494 -8.265041 -93.56341 9.853083 31.99693 0 0 -5.183085 10.28544 14.04156 -2.177459
-1524.366 128.0125 55.84703 4.108384 7.240128 154.0534 5.099368 16.44772 -0.05754531 -0 11.80735 -0 -10.693 -14.12724 -1.042984 3.4666 -19.43353 -3.720634 -0 16.22908 -0 0.7193259 -2.739973 17.63892 0.1982501 -1.411296 7.295154 0.3667074 12.54433 -5.277833 0.5841081 21.29506 3.84233 2.209482 -18.45807 4.49845 -0.9292924 -27.30681 11.60704 85.6479 23.88073 -7.895532 -0 0 24.75001 -21.29502 11.9201 11.77663 3.468624 -20.77653 -5.681678 -94.37449 11.31179 32.3993 0 0 -2.130593 9.290341 14.1167 -0.9091936
